<svg version="1.1" id="Capa_1" xmlns="http://www.w3.org/2000/svg" xmlns:xlink="http://www.w3.org/1999/xlink" x="0px" y="0px"
	 viewBox="0 0 150 132.2" style="enable-background:new 0 0 150 132.2;" xml:space="preserve">
<style type="text/css">
	.st0{fill:#FFFFFF;}
</style>
<g>
	<g>
		<path class="st0" d="M51.4,57.6C32.7,45.2,52.2,64.7,39.8,46c-1.6-2.4-5.3,4.1-5.3,5.8c0,4.8-2.4,1.8-4.1,2.9
			c-4,2.7-6.4,3.8-4.4,5.1c4.9,3.3,4.6,3.1,5.1,3.1c4,0,3.4-0.9,3.4,3.4c0,0.5-0.1,0.3,3.1,5.1c1.4,2.1,2.9-1,5.1-4.4
			c1.6-2.4-2.4-4.1,2.9-4.1C47.3,63,53.8,59.3,51.4,57.6z"/>
		<path class="st0" d="M146.3,58.6L90.8,3.1c-6.7-6.7-18.1-1.9-18.1,7.5c0,9.9-8.8,14.6-16,11.6c-5-2.1-7.8-5.6-15.5-5.6
			c-49.7,0-59.1,154.8-2.7,88.2c19.4-22.9,34.1-14.5,34.1-3v19.8c0,9.4,11.4,14.1,18.1,7.5C146.6,73.3,156.4,68.8,146.3,58.6z
			 M72.7,67.2c0,18.3-18.6,2.6-42.4,30.6c-2.8,3.3-12.4,13.8-16.4,12c-8.5-3.7,3.4-98,33.4-80.4C71.7,43.9,72.7,23.7,72.7,67.2z
			 M119.6,59.8c-18.7,12.5,0.9-7.1-11.6,11.6c-1.6,2.4-5.3-4.1-5.3-5.8c0-4.8-2.4-1.8-4.1-2.9c-4-2.7-6.4-3.8-4.4-5.1
			c4.9-3.3,4.6-3.1,5.1-3.1c4,0,3.4,0.9,3.4-3.4c0-0.5-0.1-0.3,3.1-5.1c1.4-2.1,2.9,1,5.1,4.4c1.6,2.4-2.4,4.1,2.9,4.1
			C115.6,54.5,122.1,58.2,119.6,59.8z"/>
	</g>
</g>
</svg>
